<?xml version="1.0" encoding="UTF-8"?>
<svg id="Layer_1" data-name="Layer 1" xmlns="http://www.w3.org/2000/svg" viewBox="0 0 56.69 56.69">
  <defs>
    <style>
      .cls-1 {
        fill: #31757a;
      }

      .cls-1, .cls-2 {
        stroke-width: 0px;
      }

      .cls-2 {
        fill: #fff;
      }
    </style>
  </defs>
  <circle class="cls-1" cx="28.35" cy="27.79" r="26.2"/>
  <path class="cls-2" d="m41.8,17.13h-8c-1.57,0-3.06.74-4,2-.94-1.26-2.43-2-4-2h-8c-1.1,0-2,.9-2,2v16c0,1.1.9,2,2,2h8c1.66,0,3,1.34,3,3,0,.55.45,1,1,1s1-.45,1-1c0-1.66,1.34-3,3-3h8c1.1,0,2-.9,2-2v-16c0-1.1-.9-2-2-2Zm-16,18h-8v-16h8c1.66,0,3,1.34,3,3v14c-.86-.65-1.92-1-3-1Zm16,0h-8c-1.08,0-2.14.35-3,1v-14c0-1.66,1.34-3,3-3h8v16Zm-8-13h5c.55,0,1,.45,1,1s-.45,1-1,1h-5c-.55,0-1-.45-1-1s.45-1,1-1Zm6,5c0,.55-.45,1-1,1h-5c-.55,0-1-.45-1-1s.45-1,1-1h5c.55,0,1,.45,1,1Zm0,4c0,.55-.45,1-1,1h-5c-.55,0-1-.45-1-1s.45-1,1-1h5c.55,0,1,.45,1,1Z"/>
</svg>