<?xml version="1.0" encoding="UTF-8"?>
<svg id="Layer_1" data-name="Layer 1" xmlns="http://www.w3.org/2000/svg" viewBox="0 0 56.69 56.69">
  <defs>
    <style>
      .cls-1 {
        fill: none;
        stroke: #2b324b;
        stroke-miterlimit: 10;
      }

      .cls-2 {
        fill: #2b324b;
        stroke-width: 0px;
      }
    </style>
  </defs>
  <path class="cls-2" d="m41.85,35.86l-10.93-18.98h0c-.87-1.47-2.76-1.97-4.24-1.1-.45.27-.83.65-1.1,1.1l-10.93,18.98c-.54.92-.54,2.05,0,2.97.55.95,1.57,1.54,2.67,1.52h21.86c1.1.01,2.12-.57,2.67-1.52.54-.92.54-2.05,0-2.97Zm-1.73,1.96c-.19.33-.55.53-.93.52h-21.86c-.38,0-.74-.19-.93-.52-.18-.3-.18-.67,0-.97l10.93-18.98c.31-.52.98-.69,1.5-.37.15.09.28.22.37.37l10.93,18.98c.17.3.17.67,0,.97Zm-12.87-7.48v-5c0-.55.45-1,1-1s1,.45,1,1v5c0,.55-.45,1-1,1s-1-.45-1-1Zm2.5,4.5c0,.83-.67,1.5-1.5,1.5s-1.5-.67-1.5-1.5.67-1.5,1.5-1.5,1.5.67,1.5,1.5Z"/>
  <circle class="cls-1" cx="28.35" cy="27.79" r="26.2"/>
</svg>