<?xml version="1.0" encoding="UTF-8"?>
<svg id="Layer_1" data-name="Layer 1" xmlns="http://www.w3.org/2000/svg" viewBox="0 0 56.69 56.69">
  <defs>
    <style>
      .cls-1 {
        fill: #2a9d51;
      }

      .cls-1, .cls-2 {
        stroke-width: 0px;
      }

      .cls-2 {
        fill: #fff;
      }
    </style>
  </defs>
  <circle class="cls-1" cx="28.35" cy="27.79" r="26.2"/>
  <path class="cls-2" d="m41.21,38.12c-1.9-3.29-4.84-5.65-8.26-6.77,4.27-2.54,5.67-8.07,3.13-12.34-2.54-4.27-8.07-5.67-12.34-3.13-4.27,2.54-5.67,8.07-3.13,12.34.77,1.29,1.84,2.36,3.13,3.13-3.42,1.12-6.36,3.48-8.26,6.77-.29.47-.14,1.09.33,1.38.47.29,1.09.14,1.38-.33,0-.01.02-.03.03-.05,2.36-4.07,6.52-6.5,11.13-6.5s8.78,2.43,11.13,6.5c.26.49.87.67,1.36.4s.67-.87.4-1.36c0-.02-.02-.03-.03-.05Zm-19.86-14.5c0-3.87,3.13-7,7-7s7,3.13,7,7-3.13,7-7,7c-3.86,0-7-3.14-7-7Z"/>
</svg>