<?xml version="1.0" encoding="UTF-8"?>
<svg id="Layer_1" data-name="Layer 1" xmlns="http://www.w3.org/2000/svg" viewBox="0 0 56.69 56.69">
  <defs>
    <style>
      .cls-1 {
        fill: none;
        stroke: #2b324b;
        stroke-miterlimit: 10;
      }

      .cls-2 {
        fill: #2b324b;
        stroke-width: 0px;
      }
    </style>
  </defs>
  <path class="cls-2" d="m41.33,35.88l-1.65-13.92c-.11-.94-.91-1.64-1.86-1.64h-3.9c0-3.08-2.49-5.57-5.57-5.57s-5.57,2.49-5.57,5.57h-3.91c-.95,0-1.75.7-1.86,1.64l-1.65,13.92c-.06.53.1,1.05.46,1.45.35.4.86.63,1.39.63h22.27c.54,0,1.05-.23,1.4-.63.35-.4.51-.92.45-1.45Zm-12.98-19.27c2.05,0,3.71,1.66,3.71,3.71h-7.43c0-2.05,1.66-3.71,3.71-3.71Zm-11.14,19.49l1.66-13.92h3.91v2.78c0,.51.42.93.93.93s.93-.42.93-.93v-2.78h7.43v2.78c0,.51.42.93.93.93s.93-.42.93-.93v-2.78h3.92l1.64,13.92h-22.27Z"/>
  <circle class="cls-1" cx="28.35" cy="27.79" r="26.2"/>
</svg>