<?xml version="1.0" encoding="UTF-8"?>
<svg id="Layer_1" data-name="Layer 1" xmlns="http://www.w3.org/2000/svg" viewBox="0 0 56.69 56.69">
  <defs>
    <style>
      .cls-1 {
        fill: none;
        stroke: #2b324b;
        stroke-miterlimit: 10;
      }

      .cls-2 {
        fill: #2b324b;
        stroke-width: 0px;
      }
    </style>
  </defs>
  <path class="cls-2" d="m32.93,40.76c0,.55-.45,1-1,1h-10c-.55,0-1-.45-1-1s.45-1,1-1h10c.55,0,1,.45,1,1Zm5-16c0,3.38-1.54,6.57-4.2,8.65-.5.38-.79.97-.8,1.6v.75c0,1.1-.9,2-2,2h-8c-1.1,0-2-.9-2-2v-.75c0-.62-.29-1.2-.78-1.58-2.65-2.07-4.21-5.24-4.22-8.6-.03-5.96,4.78-10.92,10.73-11.06,6.07-.15,11.12,4.66,11.26,10.73,0,.09,0,.18,0,.27Zm-2,0c0-4.97-4.03-9-9-9-.07,0-.15,0-.22,0-4.88.11-8.81,4.17-8.78,9.05,0,2.75,1.28,5.35,3.45,7.04h0c.98.76,1.55,1.93,1.55,3.16v.75h3v-5.59l-3.71-3.71c-.39-.39-.39-1.02,0-1.41s1.02-.39,1.41,0l3.29,3.29,3.29-3.29c.39-.39,1.02-.39,1.42,0,.39.39.39,1.02,0,1.41l-3.71,3.71v5.59h3v-.75c0-1.24.58-2.41,1.56-3.17,2.18-1.7,3.45-4.32,3.44-7.08Z"/>
  <circle class="cls-1" cx="28.35" cy="27.79" r="26.2"/>
</svg>