<?xml version="1.0" encoding="UTF-8"?>
<svg id="Layer_1" data-name="Layer 1" xmlns="http://www.w3.org/2000/svg" viewBox="0 0 56.69 56.69">
  <defs>
    <style>
      .cls-1 {
        fill: none;
        stroke: #2b324b;
        stroke-miterlimit: 10;
      }

      .cls-2 {
        fill: #2b324b;
        stroke-width: 0px;
      }
    </style>
  </defs>
  <path class="cls-2" d="m29.39,26.58c-1.93,0-3.5,1.57-3.5,3.5,0,1.55,1.02,2.91,2.5,3.35v2.15c0,.55.45,1,1,1s1-.45,1-1v-2.15c1.85-.55,2.91-2.5,2.35-4.35-.44-1.48-1.81-2.5-3.35-2.5Zm0,5c-.83,0-1.5-.67-1.5-1.5s.67-1.5,1.5-1.5,1.5.67,1.5,1.5-.67,1.5-1.5,1.5Zm10-9h-4v-3c0-3.31-2.69-6-6-6s-6,2.69-6,6v3h-4c-1.1,0-2,.9-2,2v14c0,1.1.9,2,2,2h20c1.1,0,2-.9,2-2v-14c0-1.1-.9-2-2-2Zm-14-3c0-2.21,1.79-4,4-4s4,1.79,4,4v3h-8v-3Zm14,19h-20v-14h20v14Z"/>
  <circle class="cls-1" cx="28.35" cy="27.79" r="26.2"/>
</svg>