<?xml version="1.0" encoding="UTF-8"?>
<svg id="Layer_1" data-name="Layer 1" xmlns="http://www.w3.org/2000/svg" viewBox="0 0 56.69 56.69">
  <defs>
    <style>
      .cls-1 {
        fill: none;
        stroke: #2b324b;
        stroke-miterlimit: 10;
      }

      .cls-2 {
        fill: #2b324b;
        stroke-width: 0px;
      }
    </style>
  </defs>
  <path class="cls-2" d="m29.05,25.33c0-5.52-4.48-10-10-10s-10,4.48-10,10c0,5.14,3.89,9.44,9,9.95v3.05h-4c-.55,0-1,.45-1,1s.45,1,1,1h4v3c0,.55.45,1,1,1s1-.45,1-1v-3h4c.55,0,1-.45,1-1s-.45-1-1-1h-4v-3.05c5.11-.52,8.99-4.82,9-9.95Zm-18,0c0-4.42,3.58-8,8-8s8,3.58,8,8-3.58,8-8,8c-4.42,0-8-3.58-8-8Z"/>
  <path class="cls-2" d="m47.17,16.35h-6c-.55,0-1,.45-1,1s.45,1,1,1h3.59l-5.26,5.26c-4.28-3.5-10.58-2.86-14.07,1.41-3.5,4.28-2.86,10.58,1.41,14.07,4.28,3.5,10.58,2.86,14.07-1.41,3.01-3.68,3.01-8.98,0-12.66l5.26-5.26v3.59c0,.55.45,1,1,1s1-.45,1-1v-6c0-.55-.45-1-1-1Zm-8.34,20.66c-3.12,3.12-8.19,3.12-11.31,0-3.12-3.12-3.12-8.19,0-11.31,3.12-3.12,8.19-3.12,11.31,0,3.12,3.13,3.12,8.19,0,11.32Z"/>
  <circle class="cls-1" cx="28.35" cy="27.79" r="26.2"/>
</svg>