<?xml version="1.0" encoding="UTF-8"?>
<svg id="Layer_1" data-name="Layer 1" xmlns="http://www.w3.org/2000/svg" viewBox="0 0 56.69 56.69">
  <defs>
    <style>
      .cls-1 {
        fill: none;
        stroke: #2b324b;
        stroke-miterlimit: 10;
      }

      .cls-2 {
        fill: #2b324b;
        stroke-width: 0px;
      }
    </style>
  </defs>
  <path class="cls-2" d="m42.69,21.26c-.21-.51-.79-.76-1.3-.55-.11.05-.21.11-.3.19l-5.04,4.65-2.15-.46-.46-2.15,4.65-5.04c.37-.41.35-1.04-.06-1.41-.09-.08-.19-.15-.3-.19-4.61-1.86-9.85.36-11.72,4.97-.43,1.07-.66,2.22-.66,3.38,0,1.24.25,2.48.75,3.62l-7.53,6.51s-.04.03-.05.05c-1.56,1.56-1.56,4.1,0,5.66s4.1,1.56,5.66,0c.02-.02.03-.03.05-.05l6.51-7.53c4.55,2,9.86-.07,11.86-4.62.5-1.14.76-2.38.76-3.63,0-1.16-.22-2.3-.66-3.38Zm-8.34,10.38c-1.18,0-2.35-.3-3.38-.88-.41-.23-.93-.14-1.24.22l-6.99,8.09c-.8.76-2.07.73-2.83-.07-.73-.77-.73-1.98,0-2.76l8.09-6.99c.36-.31.45-.83.22-1.24-1.87-3.38-.64-7.64,2.74-9.51,1.39-.77,2.99-1.04,4.56-.78l-3.9,4.23c-.22.24-.31.57-.24.89l.71,3.29c.08.38.38.68.77.77l3.29.71c.32.07.65-.02.89-.24l4.23-3.9c.64,3.82-1.93,7.43-5.75,8.07-.38.06-.77.1-1.15.1Z"/>
  <circle class="cls-1" cx="28.35" cy="27.79" r="26.2"/>
</svg>