<?xml version="1.0" encoding="UTF-8"?>
<svg id="Layer_1" data-name="Layer 1" xmlns="http://www.w3.org/2000/svg" viewBox="0 0 56.69 56.69">
  <defs>
    <style>
      .cls-1 {
        fill: #31757a;
      }

      .cls-1, .cls-2 {
        stroke-width: 0px;
      }

      .cls-2 {
        fill: #fff;
      }
    </style>
  </defs>
  <circle class="cls-1" cx="28.35" cy="27.79" r="26.2"/>
  <path class="cls-2" d="m32.9,25.51l-6-4c-.46-.31-1.08-.18-1.39.28-.11.16-.17.36-.17.56v8c0,.55.45,1,1,1,.2,0,.39-.06.56-.17l6-4c.46-.31.58-.93.28-1.39-.07-.11-.17-.21-.28-.28Zm-5.56,2.96v-4.26l3.2,2.12-3.2,2.13Zm12-11.13h-22c-1.1,0-2,.9-2,2v14c0,1.1.9,2,2,2h22c1.1,0,2-.9,2-2v-14c0-1.1-.9-2-2-2Zm0,16h-22v-14h22v14Zm2,5c0,.55-.45,1-1,1h-24c-.55,0-1-.45-1-1s.45-1,1-1h24c.55,0,1,.45,1,1Z"/>
</svg>