<?xml version="1.0" encoding="UTF-8"?>
<svg id="Layer_1" data-name="Layer 1" xmlns="http://www.w3.org/2000/svg" viewBox="0 0 56.69 56.69">
  <defs>
    <style>
      .cls-1 {
        fill: #3d256c;
      }

      .cls-1, .cls-2 {
        stroke-width: 0px;
      }

      .cls-2 {
        fill: #fff;
      }
    </style>
  </defs>
  <circle class="cls-1" cx="28.35" cy="27.79" r="26.2"/>
  <path class="cls-2" d="m17.83,25.85h19.98c1.1,0,2-.89,2.01-1.99,0-.15-.01-.29-.05-.43-.93-4.39-5.96-7.58-11.96-7.58s-11.03,3.19-11.96,7.58c-.23,1.08.45,2.14,1.53,2.38.14.03.29.05.43.05Zm9.99-8c4.98,0,9.28,2.58,9.99,6h-19.99c.72-3.42,5.02-6,10-6Zm12.66,14.06l-5.14,1.88-4.64-1.86c-.24-.1-.5-.1-.74,0l-4.62,1.85-4.63-1.85c-.23-.09-.48-.1-.71-.01l-5.5,2c-.51.22-.73.81-.51,1.32.2.46.71.7,1.2.56l1.65-.6v.66c0,2.76,2.24,5,5,5h12c2.76,0,5-2.24,5-5v-1.21l2.34-.85c.53-.16.83-.71.68-1.24-.16-.53-.71-.83-1.24-.68-.04.01-.08.03-.12.04h0Zm-3.66,3.94c0,1.66-1.34,3-3,3h-12c-1.66,0-3-1.34-3-3v-1.39l1.48-.54,4.64,1.86c.24.1.5.1.74,0l4.62-1.85,4.62,1.85c.23.09.48.1.71.01l1.16-.42v.48Zm-23-7c0-.55.45-1,1-1h26c.55,0,1,.45,1,1s-.45,1-1,1H14.82c-.55,0-1-.45-1-1Z"/>
</svg>