<?xml version="1.0" encoding="UTF-8"?>
<svg id="Layer_1" data-name="Layer 1" xmlns="http://www.w3.org/2000/svg" viewBox="0 0 56.69 56.69">
  <defs>
    <style>
      .cls-1 {
        fill: none;
        stroke: #2b324b;
        stroke-miterlimit: 10;
      }

      .cls-2 {
        fill: #2b324b;
        stroke-width: 0px;
      }
    </style>
  </defs>
  <path class="cls-2" d="m43.29,18.12c-.03-.51-.43-.91-.94-.94-6.47-.38-11.66,1.59-13.9,5.28-1.48,2.44-1.47,5.4-.02,8.22-.83.98-1.43,2.14-1.77,3.38l-2.03-2.04c.98-2.04.94-4.17-.12-5.94-1.65-2.72-5.46-4.18-10.19-3.91-.51.03-.91.43-.94.94-.28,4.73,1.18,8.54,3.91,10.19.9.55,1.93.84,2.98.84,1.02-.01,2.03-.25,2.95-.71l3.12,3.12v3.58c0,.55.45,1,1,1s1-.45,1-1v-3.69c0-1.59.54-3.14,1.53-4.38,1.29.67,2.71,1.03,4.16,1.05,1.4,0,2.78-.38,3.98-1.11,3.68-2.23,5.66-7.42,5.28-13.89Zm-24.98,13.46c-1.92-1.16-3-3.91-2.98-7.45,3.54-.03,6.29,1.06,7.45,2.98.61,1,.7,2.17.31,3.37l-3.05-3.05c-.4-.38-1.03-.36-1.41.04-.37.39-.37.99,0,1.38l3.05,3.05c-1.2.4-2.37.3-3.37-.31Zm18.66-1.28c-1.67,1.01-3.64,1.09-5.64.25l6.71-6.71c.38-.4.36-1.03-.04-1.41-.39-.37-.99-.37-1.38,0l-6.71,6.7c-.84-2-.77-3.97.25-5.64,1.74-2.88,5.88-4.48,11.17-4.35.12,5.29-1.48,9.43-4.36,11.17Z"/>
  <circle class="cls-1" cx="28.35" cy="27.79" r="26.2"/>
</svg>