<?xml version="1.0" encoding="UTF-8"?>
<svg id="Layer_1" data-name="Layer 1" xmlns="http://www.w3.org/2000/svg" viewBox="0 0 56.69 56.69">
  <defs>
    <style>
      .cls-1 {
        fill: #2a9d51;
      }

      .cls-1, .cls-2 {
        stroke-width: 0px;
      }

      .cls-2 {
        fill: #fff;
      }
    </style>
  </defs>
  <circle class="cls-1" cx="28.35" cy="27.79" r="26.2"/>
  <path class="cls-2" d="m40.77,23.85h-6v-6c0-1.1-.9-2-2-2h-6c-1.1,0-2,.9-2,2v6h-6c-1.1,0-2,.9-2,2v6c0,1.1.9,2,2,2h6v6c0,1.1.9,2,2,2h6c1.1,0,2-.9,2-2v-6h6c1.1,0,2-.9,2-2v-6c0-1.1-.9-2-2-2Zm0,8h-7c-.55,0-1,.45-1,1v7h-6v-7c0-.55-.45-1-1-1h-7v-6h7c.55,0,1-.45,1-1v-7h6v7c0,.55.45,1,1,1h7v6Z"/>
</svg>