<?xml version="1.0" encoding="UTF-8"?>
<svg id="Layer_1" data-name="Layer 1" xmlns="http://www.w3.org/2000/svg" viewBox="0 0 56.69 56.69">
  <defs>
    <style>
      .cls-1 {
        fill: none;
        stroke: #2b324b;
        stroke-miterlimit: 10;
      }

      .cls-2 {
        fill: #2b324b;
        stroke-width: 0px;
      }
    </style>
  </defs>
  <path class="cls-2" d="m29.83,37.12c.39.39.39,1.02,0,1.41l-1.24,1.25c-2.74,2.73-7.17,2.73-9.91,0-2.73-2.74-2.73-7.17,0-9.91l3.01-3.01c2.62-2.62,6.83-2.75,9.6-.28.41.37.45,1,.09,1.41-.37.41-1,.45-1.42.09-1.98-1.76-4.99-1.67-6.86.2l-3.01,3.01c-1.95,1.95-1.95,5.12,0,7.07,1.95,1.95,5.12,1.95,7.07,0l1.24-1.24c.39-.39,1.02-.39,1.41,0h0Zm8.76-17.25c-2.74-2.73-7.17-2.73-9.9,0l-1.24,1.24c-.39.39-.39,1.02,0,1.41.39.39,1.02.39,1.41,0l1.24-1.24c1.95-1.95,5.12-1.95,7.07,0s1.95,5.12,0,7.07l-3.02,3.02c-1.87,1.87-4.88,1.96-6.86.2-.41-.37-1.05-.33-1.41.08-.37.41-.33,1.05.09,1.42h0c2.77,2.46,6.98,2.34,9.6-.28l3.01-3.02c2.73-2.74,2.73-7.17,0-9.91h0Z"/>
  <circle class="cls-1" cx="28.35" cy="27.79" r="26.2"/>
</svg>