<?xml version="1.0" encoding="UTF-8"?>
<svg id="Layer_1" data-name="Layer 1" xmlns="http://www.w3.org/2000/svg" viewBox="0 0 56.69 56.69">
  <defs>
    <style>
      .cls-1 {
        fill: none;
        stroke: #2b324b;
        stroke-miterlimit: 10;
      }

      .cls-2 {
        fill: #2b324b;
        stroke-width: 0px;
      }
    </style>
  </defs>
  <path class="cls-2" d="m29.35,20.13c-2.76,0-5,2.24-5,5s2.24,5,5,5,5-2.24,5-5-2.24-5-5-5Zm0,8c-1.66,0-3-1.34-3-3s1.34-3,3-3,3,1.34,3,3-1.34,3-3,3Zm0-14c-6.07,0-10.99,4.93-11,11,0,3.92,1.81,8.08,5.25,12.03,1.54,1.78,3.28,3.39,5.18,4.79.34.24.8.24,1.15,0,1.9-1.4,3.63-3,5.17-4.79,3.43-3.95,5.25-8.11,5.25-12.03,0-6.07-4.93-10.99-11-11Zm0,25.75c-2.07-1.62-9-7.59-9-14.75,0-4.97,4.03-9,9-9s9,4.03,9,9c0,7.15-6.93,13.12-9,14.75Z"/>
  <circle class="cls-1" cx="28.35" cy="27.79" r="26.2"/>
</svg>